<?xml version="1.0" encoding="utf-8"?>
<!-- Generator: Adobe Illustrator 21.1.0, SVG Export Plug-In . SVG Version: 6.00 Build 0)  -->
<svg version="1.1" id="Layer_1" xmlns="http://www.w3.org/2000/svg" xmlns:xlink="http://www.w3.org/1999/xlink" x="0px" y="0px"
	 viewBox="0 0 700 1000" style="enable-background:new 0 0 700 1000;" xml:space="preserve">
<style type="text/css">
	.st0{fill:#E05270;}
	.st1{fill:#DE4363;}
	.st2{fill:#F7C014;}
	.st3{fill:#3BB1B6;}
	.st4{opacity:0.1;fill:#030303;}
	.st5{font-family:'Helsinki';}
	.st6{font-size:61.8783px;}
	.st7{fill:#FFFFFF;}
	.st8{fill:#FCD40B;}
</style>
<g>
	<g>
		<path class="st0" d="M343.7,359.9c3.9-6.7,10.3-6.7,14.1,0l4.8,8.3c3.9,6.7,11.8,8,17.6,2.8l7.2-6.4c5.8-5.2,11.8-3.2,13.5,4.4
			l2,9.4c1.6,7.6,8.8,11.2,15.9,8.1l8.8-3.9c7.1-3.2,12.2,0.6,11.4,8.3l-1,9.6c-0.8,7.7,4.9,13.4,12.6,12.6l9.6-1
			c7.7-0.8,11.5,4.3,8.3,11.4l-3.9,8.8c-3.2,7.1,0.5,14.2,8.1,15.9l9.4,2c7.6,1.6,9.6,7.7,4.4,13.5l-6.4,7.2
			c-5.2,5.8-3.9,13.7,2.8,17.6l8.3,4.8c6.7,3.9,6.7,10.3,0,14.1l-8.3,4.8c-6.7,3.9-8,11.8-2.8,17.6l6.4,7.2
			c5.2,5.8,3.2,11.8-4.4,13.5l-9.4,2c-7.6,1.6-11.2,8.8-8.1,15.9l3.9,8.8c3.2,7.1-0.6,12.2-8.3,11.4l-9.6-1
			c-7.7-0.8-13.4,4.9-12.6,12.6l1,9.6c0.8,7.7-4.3,11.5-11.4,8.3l-8.8-3.9c-7.1-3.2-14.2,0.5-15.9,8.1l-2,9.4
			c-1.6,7.6-7.7,9.6-13.5,4.4l-7.2-6.4c-5.8-5.2-13.7-3.9-17.6,2.8l-4.8,8.3c-3.9,6.7-10.3,6.7-14.1,0l-4.8-8.3
			c-3.9-6.7-11.8-8-17.6-2.8l-7.2,6.4c-5.8,5.2-11.8,3.2-13.5-4.4l-2-9.4c-1.6-7.6-8.8-11.2-15.9-8.1l-8.8,3.9
			c-7.1,3.2-12.2-0.6-11.4-8.3l1-9.6c0.8-7.7-4.9-13.4-12.6-12.6l-9.6,1c-7.7,0.8-11.5-4.3-8.3-11.4l3.9-8.8
			c3.2-7.1-0.5-14.2-8.1-15.9l-9.4-2c-7.6-1.6-9.6-7.7-4.4-13.5l6.4-7.2c5.2-5.8,3.9-13.7-2.8-17.6l-8.3-4.8
			c-6.7-3.9-6.7-10.3,0-14.1l8.3-4.8c6.7-3.9,8-11.8,2.8-17.6l-6.4-7.2c-5.2-5.8-3.2-11.8,4.4-13.5l9.4-2c7.6-1.6,11.2-8.8,8.1-15.9
			l-3.9-8.8c-3.2-7.1,0.6-12.2,8.3-11.4l9.6,1c7.7,0.8,13.4-4.9,12.6-12.6l-1-9.6c-0.8-7.7,4.3-11.5,11.4-8.3l8.8,3.9
			c7.1,3.2,14.2-0.5,15.9-8.1l2-9.4c1.6-7.6,7.7-9.6,13.5-4.4l7.2,6.4c5.8,5.2,13.7,3.9,17.6-2.8L343.7,359.9z"/>
		<path class="st1" d="M250.8,521.8v65.7l0.2,0c7.7-0.8,13.4,4.9,12.6,12.6l-1,9.6c-0.8,7.7,4.3,11.5,11.4,8.3l8.8-3.9
			c7.1-3.2,14.2,0.5,15.9,8.1l2,9.4c1.6,7.6,7.7,9.6,13.5,4.4l7.2-6.4c5.8-5.2,13.7-3.9,17.6,2.8l4.8,8.3c3.9,6.7,10.3,6.7,14.1,0
			l4.8-8.3c3.9-6.7,11.8-8,17.6-2.8l7.2,6.4c5.8,5.2,11.8,3.2,13.5-4.4l2-9.4c1.6-7.6,8.8-11.2,15.9-8.1l8.8,3.9
			c7.1,3.2,12.2-0.6,11.4-8.3l-1-9.6c-0.8-7.7,4.9-13.4,12.6-12.6l0.2,0v-65.7H250.8z"/>
		<g>
			<path class="st2" d="M442.4,462.3H290.1c-4.6,0-8.3,3.7-8.3,8.3v88.6c0,4.6,3.7,8.3,8.3,8.3H358c0.9,7.7,7.5,13.7,15.5,13.7h1.3
				v-13.7h67.7c4.6,0,8.3-3.7,8.3-8.3v-88.6C450.7,466.1,447,462.3,442.4,462.3z"/>
			<path class="st3" d="M260,437.9h170.2c5.1,0,9.3,4.2,9.3,9.3v99.1c0,5.1-4.2,9.3-9.3,9.3h-75.8c-1,8.6-8.4,15.3-17.3,15.3h-1.4
				v-15.3H260c-5.1,0-9.3-4.2-9.3-9.3v-99.1C250.8,442.1,254.9,437.9,260,437.9z"/>
			<text transform="matrix(1 0 0 1 273.1553 525.4023)" class="st4 st5 st6">quiz</text>
			<text transform="matrix(1 0 0 1 273.1553 518.5747)" class="st7 st5 st6">quiz</text>
		</g>
	</g>
	<g>
		<g>
			<path class="st8" d="M328.4,426.1c1.3,3.5,6.8,1.5,5.4-2.1l-4.1-10.9c-1.3-3.5-6.8-1.5-5.5,2.1L328.4,426.1z"/>
			<path class="st8" d="M355.9,421.7l0.5-11.6c0.2-3.8-5.7-4-5.8-0.2l-0.5,11.6C349.9,425.2,355.8,425.4,355.9,421.7z"/>
			<path class="st8" d="M376,427.5l4.7-10.7c1.5-3.4-3.8-5.8-5.3-2.4l-4.7,10.7C369.1,428.5,374.5,430.9,376,427.5z"/>
		</g>
	</g>
</g>
</svg>
