<?xml version="1.0" encoding="utf-8"?>
<!-- Generator: Adobe Illustrator 21.1.0, SVG Export Plug-In . SVG Version: 6.00 Build 0)  -->
<svg version="1.1" id="Layer_1" xmlns="http://www.w3.org/2000/svg" xmlns:xlink="http://www.w3.org/1999/xlink" x="0px" y="0px"
	 viewBox="0 0 700 1000" style="enable-background:new 0 0 700 1000;" xml:space="preserve">
<style type="text/css">
	.st0{fill:#6DAF80;}
	.st1{fill:#F3B246;}
	.st2{fill:#113041;}
	.st3{fill:#E25E45;}
</style>
<g>
	<circle class="st0" cx="350.7" cy="500.1" r="58.7"/>
	<g>
		<path class="st1" d="M370.8,494.4c0,10.3-9.3,21.6-16.6,26.5c-8.5,5.7-20.6-16.2-20.6-26.5c0-10.3,8.3-18.6,18.6-18.6
			C362.5,475.8,370.8,484.1,370.8,494.4z"/>
		<g>
			<g>
				<path class="st2" d="M353.3,471.9h-2.7c-11.7,0.7-21,10.5-21,22.4c0,8.2,3.6,14.8,9.9,18.6v6.5c0,1.9,0.7,2.6,1.8,3.3
					c0.3,0.2,0.4,0.5,0.5,0.8c0,0.3,0.1,0.7-0.4,0.9c-1.7,0-1.7,1.9-1.7,1.9c0,0.7,0,4.2,0,4.2c0,0.9,0.8,1.7,1.7,1.7h1.1
					c0.9,0,1.6,0.7,1.6,0.7s4,3.2,7.9,3.2c4,0,7.9-3.2,7.9-3.2s0.7-0.7,1.6-0.7h1.1c0.9,0,1.7-0.8,1.7-1.7c0,0,0-3.4,0-4.2
					c0,0,0-1.9-1.7-1.9c-0.4-0.1-0.4-0.5-0.4-0.9c0-0.3,0.2-0.6,0.5-0.8c1.1-0.7,1.8-1.5,1.8-3.3V513c6.3-3.9,9.9-10.4,9.9-18.6
					C374.3,482.4,365,472.7,353.3,471.9z M359.7,508.1l-1.3,0.7v6c0,1-0.7,1.9-1.7,2.1c0,0-1.6,0.7-4.5,0.7c-3,0-5.1-0.7-5.1-0.7
					c-1-0.2-1.7-1.1-1.7-2.1v-6l-1.3-0.7c-6.3-3.2-7.6-9.1-7.6-13.3c0-8.6,6.9-15.6,15.4-15.6c8.5,0,15.4,7,15.4,15.6
					C367.4,499.1,366,504.9,359.7,508.1z"/>
			</g>
		</g>
		<g>
			<path class="st3" d="M380.2,474.5c0.1-0.6-0.1-1.1-0.4-1.6c-0.2-0.3-0.4-0.5-0.6-0.8c-0.4-0.4-0.9-0.7-1.4-0.7
				c-0.5,0-1.1,0.2-1.5,0.6l-3.6,3.4c-0.8,0.7-0.8,1.9-0.2,2.8c0,0,0.1,0.1,0.1,0.1c0.7,0.8,1.9,1,2.7,0.4l4.1-2.9
				C379.9,475.5,380.2,475,380.2,474.5z"/>
			<path class="st3" d="M351.7,468.6c0.1,0,0.1,0,0.2,0c1.1,0,1.9-0.8,2-1.9l0.3-5c0-0.6-0.2-1.1-0.5-1.5c-0.4-0.4-0.9-0.6-1.5-0.6
				c-0.3,0-0.7,0-1,0c-0.6,0-1.1,0.3-1.5,0.7c-0.4,0.4-0.6,1-0.5,1.5l0.4,5C349.8,467.8,350.6,468.6,351.7,468.6z"/>
			<path class="st3" d="M326.5,501c-0.2-1-1.2-1.7-2.3-1.5l-4.9,0.8c-0.6,0.1-1,0.4-1.4,0.9c-0.3,0.5-0.4,1-0.3,1.6
				c0.1,0.3,0.2,0.6,0.2,1c0.1,0.5,0.5,1,1,1.3c0.5,0.3,1.1,0.3,1.6,0.1l4.8-1.5c1-0.3,1.6-1.4,1.3-2.4
				C326.5,501.1,326.5,501.1,326.5,501z"/>
			<path class="st3" d="M331.3,478.8c0-0.1,0.1-0.1,0.1-0.1c0.7-0.8,0.6-2-0.2-2.7l-3.7-3.4c-0.4-0.4-1-0.6-1.5-0.5
				c-0.6,0-1.1,0.3-1.4,0.7c-0.2,0.3-0.4,0.5-0.6,0.8c-0.3,0.4-0.5,1-0.4,1.6c0.1,0.5,0.4,1,0.9,1.3l4.2,2.8
				C329.4,479.9,330.6,479.7,331.3,478.8z"/>
			<path class="st3" d="M386.5,500.5c-0.3-0.5-0.8-0.8-1.4-0.8l-4.9-0.7c-1-0.1-2,0.5-2.3,1.6c0,0.1,0,0.1-0.1,0.2
				c-0.2,1,0.4,2.1,1.4,2.4l4.8,1.4c0.5,0.2,1.1,0.1,1.6-0.2c0.5-0.3,0.8-0.8,1-1.3c0.1-0.3,0.1-0.7,0.2-1
				C386.9,501.5,386.8,500.9,386.5,500.5z"/>
		</g>
	</g>
</g>
</svg>
